<svg width="696" height="696" viewBox="0 0 696 696" fill="none" xmlns="http://www.w3.org/2000/svg">
<g clip-path="url(#clip0_297_11)">
<path d="M484.534 484.534C651.324 317.744 725.301 121.301 649.767 45.767C574.232 -29.7673 377.79 44.2101 211 211C44.2099 377.79 -29.7675 574.233 45.7669 649.767C121.301 725.301 317.744 651.324 484.534 484.534Z" fill="#F1ECD9"/>
<path d="M73.4171 516.484C76.6186 503.244 78.8744 496.332 84.404 481.782L110.884 508.262C107.319 514.301 105.646 517.284 102.59 523.104C101.063 520.267 100.262 518.884 98.6619 515.974L198.691 616.003C196.29 616.804 194.981 617.24 192.58 617.895L96.0426 521.358C98.4433 522.449 99.6074 523.031 102.008 524.268C98.9524 529.942 97.57 532.78 94.9508 538.163L73.3445 516.557L73.4171 516.484Z" fill="#1B1B1B"/>
<path d="M88.6228 471.449C94.2978 457.917 97.572 450.86 105.139 436.455L135.911 467.228C127.835 478.941 124.125 484.688 117.431 495.601C115.249 491.818 114.158 489.854 111.975 486.071L154.388 528.483C150.823 526.519 149.004 525.573 145.439 523.609C153.151 514.588 157.298 509.859 166.102 500.038L193.164 527.1C183.342 535.903 178.613 540.05 169.737 547.907C167.846 544.415 166.9 542.597 164.864 538.959L209.386 583.481C205.53 581.226 203.565 580.135 199.783 577.952C211.132 571.113 217.025 567.257 229.32 558.891L260.166 589.736C245.324 597.448 238.049 600.94 224.008 606.688L88.6956 471.376L88.6228 471.449Z" fill="#1B1B1B"/>
<path d="M113.355 421.391C117.793 413.461 120.121 409.532 125.141 401.456C129.216 394.763 137.8 394.472 150.313 401.019C167.627 410.04 183.196 424.444 196.945 438.193C206.839 448.087 217.024 459.145 225.317 470.639C232.519 480.606 237.102 489.117 239.211 496.174C241.175 503.231 240.375 508.251 236.81 511.379C230.844 516.472 227.861 519.019 222.187 523.82C219.932 519.674 218.841 517.564 216.513 513.344L281.331 578.163C278.567 579.764 277.184 580.564 274.493 582.092L113.719 421.318L113.355 421.391ZM206.402 469.621C206.547 466.129 205.311 462.273 202.91 457.981C200.437 453.762 196.727 449.033 191.78 444.086C186.833 439.139 182.541 435.72 178.321 433.392C174.174 430.992 170.464 430.046 167.263 430.483C163.989 430.846 161.297 432.52 159.042 435.503C155.404 440.304 153.658 442.778 150.166 447.434L192.069 489.337C196.071 485.19 198.108 483.008 202.255 478.715C204.874 476.096 206.183 473.041 206.256 469.476L206.402 469.621ZM229.68 511.816C232.372 509.124 233.682 507.815 236.447 505.05C263.291 522 289.99 538.95 316.762 555.973C313.124 558.446 311.233 559.61 307.522 562.011C281.551 545.207 255.652 528.475 229.68 511.816Z" fill="#1B1B1B"/>
<path d="M291.16 516.258C261.77 465.77 232.017 415.5 202.191 365.303C205.101 367.339 206.629 368.285 209.466 370.249C200.153 381.017 191.059 392.003 182.11 403.134L146.973 367.996C156.285 354.901 165.816 342.023 175.638 329.292C188.151 340.204 200.591 351.189 213.031 362.028C243.803 413.899 274.502 465.696 304.837 517.712C300.399 514.73 298.217 513.275 293.779 510.438C305.929 500.47 318.079 490.357 329.937 480.099L368.13 518.292C354.962 528.696 341.43 538.736 327.607 548.34C315.385 537.573 303.236 526.879 291.014 516.112L291.16 516.258Z" fill="#1B1B1B"/>
<path d="M230.49 356.498C220.087 343.185 209.903 328.78 203.647 313.066C198.918 301.208 198.919 292.478 203.648 287.022C208.377 281.565 216.816 280.837 228.456 285.202C244.243 291.094 258.72 301.206 272.105 311.536C292.766 327.541 312.117 345.437 330.377 363.697C348.71 382.029 366.606 401.381 382.683 422.114C393.086 435.573 403.271 450.122 409.163 465.909C413.528 477.549 412.872 485.916 407.343 490.717C401.887 495.446 393.157 495.447 381.298 490.718C365.584 484.462 351.18 474.277 337.867 463.875C317.934 448.307 299.019 430.701 281.196 412.878C263.445 395.127 245.986 376.359 230.49 356.498ZM335.03 445.178C348.489 452.525 358.456 453.47 364.422 447.941C368.35 444.303 369.369 438.775 367.551 431.427C365.659 424.006 361.004 415.131 353.511 404.727C344.708 392.433 334.16 381.011 323.684 370.536C313.281 360.133 301.932 349.657 289.637 340.854C279.307 333.434 270.431 328.778 263.011 326.887C255.59 324.996 250.134 326.087 246.497 330.016C240.967 335.982 241.913 345.949 249.114 359.262C258.79 377.086 272.903 392.508 287.234 406.84C301.638 421.244 317.207 435.357 334.958 445.105L335.03 445.178Z" fill="#1B1B1B"/>
<path d="M269.201 227.293C276.622 220.309 280.333 216.889 287.826 210.123C295.392 203.284 307.469 204.011 323.11 212.086C343.917 222.853 361.74 239.075 378.109 255.298C394.55 271.739 411.063 289.708 422.557 310.224C431.141 325.501 432.378 336.777 426.121 343.325C419.791 349.946 416.663 353.22 410.115 359.913C408.224 355.693 407.278 353.584 405.387 349.364L475.371 419.348C472.679 422.186 471.296 423.714 468.605 426.551L269.274 227.22L269.201 227.293ZM370.249 320.047C375.997 314.299 378.834 311.462 384.509 305.787C388.074 302.222 389.893 298.221 390.111 293.783C390.257 289.273 388.875 284.398 385.819 279.015C382.764 273.631 378.181 267.884 371.924 261.628C365.668 255.371 360.139 251.007 354.828 248.024C349.518 245.041 344.571 243.586 340.133 243.805C335.622 243.951 331.621 245.77 327.911 249.189C322.09 254.718 319.18 257.483 313.287 263.085C311.396 258.865 310.523 256.828 308.631 252.609L380.798 324.775C376.578 322.884 374.469 321.938 370.249 320.047Z" fill="#1B1B1B"/>
<path d="M366.248 221.321C356.355 208.663 346.461 194.841 340.86 179.781C336.859 168.942 337.732 161.376 343.116 157.301C348.5 153.227 357.157 153.59 368.506 158.392C383.347 164.648 396.806 174.178 409.537 184.144C428.16 198.839 445.766 215.135 462.498 231.867C479.23 248.599 495.598 266.277 510.366 284.974C520.405 297.632 529.935 311.236 536.191 326.077C540.92 337.353 541.356 345.938 537.281 351.467C533.207 356.851 525.641 357.724 514.802 353.723C499.742 348.122 485.92 338.228 473.261 328.334C453.401 312.839 434.559 295.307 416.881 277.629C399.276 260.024 381.817 241.255 366.394 221.467L366.248 221.321ZM469.406 308.91C482.21 315.894 491.304 316.257 496.251 310.437C499.453 306.654 499.962 301.197 497.925 294.068C495.816 287.011 491.233 278.645 484.176 268.969C476.101 257.838 466.28 247.144 456.677 237.542C447.147 228.012 436.453 218.19 425.323 210.115C415.793 203.204 407.426 198.621 400.37 196.512C393.313 194.402 387.856 194.912 384 198.186C378.253 203.06 378.617 212.154 385.382 224.886C394.766 242.273 408.661 257.477 422.701 271.518C436.815 285.631 452.019 299.526 469.479 308.983L469.406 308.91Z" fill="#1B1B1B"/>
<path d="M562.892 299.377C556.49 298.94 548.56 296.249 539.321 291.375L509.494 261.548C516.26 263.803 522.08 264.676 527.245 264.166C532.265 263.657 536.194 261.62 538.813 258.127C542.159 253.617 543.033 248.524 541.651 242.777C540.269 237.03 536.704 231.428 531.029 225.753C527.61 222.334 524.046 219.643 520.554 217.751C517.062 215.86 513.351 214.623 509.496 213.969C505.713 213.387 501.42 213.169 496.473 213.605C495.818 213.678 495.527 213.678 494.945 213.824C494.145 213.896 493.636 213.969 492.836 214.042C485.924 214.551 479.522 214.115 473.848 212.806C468.173 211.497 461.698 208.369 454.569 203.713C447.367 198.984 439 191.782 429.47 182.252C419.431 172.213 411.429 162.756 405.391 153.953C399.426 145.223 395.934 137.803 394.843 131.764C393.752 125.726 395.062 121.652 398.772 119.396C402.482 117.141 407.866 116.704 414.777 118.232C421.616 119.686 429.182 122.451 437.257 126.597L463.519 152.859C458.281 151.696 453.189 151.259 448.387 151.842C443.585 152.424 439.584 153.806 436.383 156.28C432.6 159.19 430.926 162.9 431.508 167.411C432.09 171.921 435 176.723 440.165 181.888C443.657 185.38 447.44 188.144 451.296 190.108C455.151 192.072 459.371 193.382 463.809 194.036C468.247 194.691 473.412 194.764 479.304 194.4C480.396 194.327 480.905 194.254 481.996 194.036C488.253 194.036 494.073 194.763 499.238 196.145C504.403 197.527 510.369 200.437 517.135 204.875C523.828 209.385 531.466 215.859 540.123 224.516C549.581 233.974 557.365 243.067 563.694 252.161C570.023 261.255 574.315 269.475 576.497 276.75C578.752 284.098 578.606 289.918 576.133 294.138C573.805 298.067 569.439 299.813 562.964 299.449L562.892 299.377Z" fill="#1B1B1B"/>
<path d="M432.02 105.354C444.534 98.37 457.483 91.9676 470.652 86.2198L499.096 114.664C492.767 118.666 489.493 120.776 482.872 125.214C481.345 122.086 480.545 120.558 479.017 117.43L601.962 240.374C600.652 243.139 599.997 244.376 598.615 247.213L472.76 121.358C476.325 123.323 478.071 124.195 481.563 126.087C474.87 130.598 471.523 132.926 464.539 137.873L432.093 105.427L432.02 105.354Z" fill="#1B1B1B"/>
<path d="M509.786 111.096C501.057 99.8928 495.674 90.8721 493.709 84.2518C491.745 77.6315 493.201 73.8482 497.711 72.393C502.222 70.9378 508.551 72.3199 516.19 75.8845C523.829 79.449 532.486 85.1958 542.089 92.7616C553.001 101.346 563.549 111.167 573.298 120.915C583.046 130.664 592.94 141.285 601.524 152.197C609.163 161.873 614.764 170.53 618.474 178.169C622.039 185.807 623.421 192.137 621.966 196.647C620.51 201.158 616.727 202.613 610.107 200.649C603.487 198.685 594.466 193.302 583.262 184.572C569.513 173.878 556.782 161.875 544.487 149.58C532.265 137.359 520.335 124.7 509.714 111.024L509.786 111.096ZM579.844 170.822C588.137 175.187 593.448 174.968 595.849 170.531C597.377 167.693 597.231 163.765 595.631 159.109C594.031 154.453 590.975 149.215 586.611 143.249C582.246 137.284 576.79 131.1 569.951 124.262C563.113 117.424 556.929 111.968 551.109 107.748C545.217 103.456 539.979 100.401 535.323 98.8003C530.667 97.1999 526.811 96.9818 523.901 98.5825C519.536 100.911 519.171 106.221 523.536 114.515C529.72 126.373 539.541 136.631 548.634 145.724C557.728 154.818 568.058 164.712 579.916 170.895L579.844 170.822Z" fill="#1B1B1B"/>
<path d="M473.838 473.837C394.682 552.992 306.506 613.379 225.533 643.864C149.653 672.458 87.9598 670.714 56.3142 639.069C24.6686 607.423 22.9248 545.73 51.5185 469.85C82.004 388.877 142.39 300.701 221.546 221.545C300.702 142.389 388.951 81.9301 469.851 51.5173C545.732 22.9235 607.424 24.6674 639.07 56.313C670.715 87.9586 672.459 149.651 643.866 225.532C613.453 306.432 552.994 394.681 473.838 473.837ZM230.785 230.784C152.866 308.703 93.4984 395.279 63.6677 474.433C36.9656 545.366 37.6183 602.039 65.481 629.902C93.3436 657.764 150.017 658.417 220.95 631.715C300.177 601.812 386.68 542.517 464.599 464.598C542.518 386.679 601.886 300.103 631.716 220.949C658.418 150.015 657.766 93.3424 629.903 65.4798C602.04 37.6171 545.367 36.9644 474.434 63.6665C395.207 93.5699 308.704 152.865 230.785 230.784Z" fill="#1B1B1B"/>
<path d="M108.564 590.999C108.565 580.032 104.65 571.142 99.82 571.143C94.9901 571.143 91.0743 580.033 91.0739 591C91.0736 601.966 94.9887 610.856 99.8186 610.856C104.648 610.856 108.564 601.966 108.564 590.999Z" fill="#1B1B1B"/>
<path d="M119.674 590.995C119.674 586.166 110.784 582.25 99.8171 582.251C88.8504 582.251 79.9598 586.167 79.9597 590.997C79.9595 595.827 88.8498 599.742 99.8165 599.741C110.783 599.741 119.673 595.825 119.674 590.995Z" fill="#1B1B1B"/>
<path d="M605.323 94.1152C605.323 83.1486 601.408 74.2586 596.579 74.2587C591.749 74.2589 587.833 83.1492 587.833 94.1158C587.832 105.083 591.747 113.973 596.577 113.972C601.407 113.972 605.322 105.082 605.323 94.1152Z" fill="#1B1B1B"/>
<path d="M616.434 94.1136C616.434 89.2838 607.544 85.3686 596.577 85.369C585.611 85.3694 576.72 89.2852 576.72 94.115C576.72 98.9449 585.61 102.86 596.577 102.86C607.543 102.859 616.434 98.9435 616.434 94.1136Z" fill="#1B1B1B"/>
</g>
<defs>
<clipPath id="clip0_297_11">
<rect width="696" height="696" fill="white"/>
</clipPath>
</defs>
</svg>
